<svg data-v-423bf9ae="" xmlns="http://www.w3.org/2000/svg" viewBox="0 0 462.1724822008731 60" class="font"><!----><!----><!----><g data-v-423bf9ae="" id="dd6bb775-0b54-4c96-946b-273298bf7b0d" fill="black" transform="matrix(4.792332093150517,0,0,4.792332093150517,-1.9648620460912127,-9.584664186301033)"><path d="M4.80 14.52L4.80 14.52Q3.77 14.52 3.12 14.36L3.12 14.36L3.12 14.36Q2.48 14.20 2.12 13.75L2.12 13.75L2.12 13.75Q1.76 13.30 1.76 12.45L1.76 12.45L1.76 9.74L1.76 9.74Q1.76 9.31 1.36 9.11L1.36 9.11L1.36 9.11Q0.97 8.90 0.41 8.90L0.41 8.90L0.41 7.62L0.41 7.62Q0.97 7.62 1.36 7.41L1.36 7.41L1.36 7.41Q1.76 7.21 1.76 6.78L1.76 6.78L1.76 4.07L1.76 4.07Q1.76 3.22 2.12 2.77L2.12 2.77L2.12 2.77Q2.48 2.32 3.12 2.16L3.12 2.16L3.12 2.16Q3.77 2.00 4.80 2.00L4.80 2.00L4.80 3.08L4.80 3.08Q4.23 3.08 3.82 3.27L3.82 3.27L3.82 3.27Q3.42 3.46 3.42 3.93L3.42 3.93L3.42 3.93Q3.42 4.49 3.36 5.61L3.36 5.61L3.32 6.68L3.32 6.68Q3.29 7.42 2.88 7.80L2.88 7.80L2.88 7.80Q2.46 8.19 1.53 8.19L1.53 8.19L1.53 8.33L1.53 8.33Q2.45 8.33 2.87 8.71L2.87 8.71L2.87 8.71Q3.29 9.09 3.32 9.84L3.32 9.84L3.36 10.91L3.36 10.91Q3.42 12.03 3.42 12.59L3.42 12.59L3.42 12.59Q3.42 13.44 4.80 13.44L4.80 13.44L4.80 14.52ZM13.38 12.46L13.38 12.46Q11.62 12.46 10.74 11.52L10.74 11.52L10.74 11.52Q9.87 10.58 9.87 8.61L9.87 8.61L9.87 8.61Q9.87 6.65 10.74 5.71L10.74 5.71L10.74 5.71Q11.62 4.76 13.38 4.76L13.38 4.76L13.38 4.76Q14.85 4.76 15.73 5.51L15.73 5.51L15.73 5.51Q16.60 6.26 16.60 7.70L16.60 7.70L14.67 7.70L14.67 7.70Q14.67 7.03 14.32 6.66L14.32 6.66L14.32 6.66Q13.97 6.30 13.34 6.30L13.34 6.30L13.34 6.30Q12.56 6.30 12.19 6.85L12.19 6.85L12.19 6.85Q11.82 7.41 11.82 8.50L11.82 8.50L11.82 8.72L11.82 8.72Q11.82 9.81 12.20 10.37L12.20 10.37L12.20 10.37Q12.59 10.92 13.44 10.92L13.44 10.92L13.44 10.92Q14.04 10.92 14.40 10.55L14.40 10.55L14.40 10.55Q14.76 10.18 14.76 9.52L14.76 9.52L16.60 9.52L16.60 9.52Q16.60 10.96 15.74 11.71L15.74 11.71L15.74 11.71Q14.87 12.46 13.38 12.46L13.38 12.46ZM21.39 12.46L21.39 12.46Q19.50 12.46 18.58 11.52L18.58 11.52L18.58 11.52Q17.65 10.58 17.65 8.61L17.65 8.61L17.65 8.61Q17.65 6.64 18.58 5.70L18.58 5.70L18.58 5.70Q19.50 4.76 21.39 4.76L21.39 4.76L21.39 4.76Q23.28 4.76 24.21 5.70L24.21 5.70L24.21 5.70Q25.14 6.64 25.14 8.61L25.14 8.61L25.14 8.61Q25.14 10.58 24.21 11.52L24.21 11.52L24.21 11.52Q23.28 12.46 21.39 12.46L21.39 12.46ZM21.39 10.89L21.39 10.89Q22.33 10.89 22.75 10.35L22.75 10.35L22.75 10.35Q23.17 9.81 23.17 8.72L23.17 8.72L23.17 8.50L23.17 8.50Q23.17 7.41 22.75 6.87L22.75 6.87L22.75 6.87Q22.33 6.33 21.39 6.33L21.39 6.33L21.39 6.33Q20.45 6.33 20.04 6.87L20.04 6.87L20.04 6.87Q19.63 7.41 19.63 8.50L19.63 8.50L19.63 8.72L19.63 8.72Q19.63 9.81 20.04 10.35L20.04 10.35L20.04 10.35Q20.45 10.89 21.39 10.89L21.39 10.89ZM29.13 12.46L29.13 12.46Q27.73 12.46 26.96 11.50L26.96 11.50L26.96 11.50Q26.19 10.54 26.19 8.60L26.19 8.60L26.19 8.60Q26.19 6.69 26.97 5.73L26.97 5.73L26.97 5.73Q27.75 4.76 29.04 4.76L29.04 4.76L29.04 4.76Q29.78 4.76 30.35 5.03L30.35 5.03L30.35 5.03Q30.91 5.29 31.23 5.78L31.23 5.78L31.32 5.78L31.32 2.17L33.24 2.17L33.24 12.29L31.60 12.29L31.47 11.33L31.37 11.33L31.37 11.33Q31.02 11.89 30.44 12.17L30.44 12.17L30.44 12.17Q29.85 12.46 29.13 12.46L29.13 12.46ZM29.75 10.79L29.75 10.79Q31.32 10.79 31.32 8.74L31.32 8.74L31.32 8.51L31.32 8.51Q31.32 6.43 29.75 6.43L29.75 6.43L29.75 6.43Q28.90 6.43 28.53 6.94L28.53 6.94L28.53 6.94Q28.17 7.45 28.17 8.48L28.17 8.48L28.17 8.74L28.17 8.74Q28.17 9.77 28.53 10.28L28.53 10.28L28.53 10.28Q28.90 10.79 29.75 10.79L29.75 10.79ZM38.26 12.46L38.26 12.46Q36.48 12.46 35.61 11.52L35.61 11.52L35.61 11.52Q34.73 10.58 34.73 8.61L34.73 8.61L34.73 8.61Q34.73 6.64 35.61 5.70L35.61 5.70L35.61 5.70Q36.48 4.76 38.26 4.76L38.26 4.76L38.26 4.76Q39.90 4.76 40.71 5.71L40.71 5.71L40.71 5.71Q41.52 6.65 41.52 8.61L41.52 8.61L41.52 9.06L36.68 9.06L36.68 9.06Q36.71 10.04 37.07 10.51L37.07 10.51L37.07 10.51Q37.44 10.98 38.29 10.98L38.29 10.98L38.29 10.98Q38.89 10.98 39.26 10.64L39.26 10.64L39.26 10.64Q39.63 10.30 39.63 9.69L39.63 9.69L41.52 9.69L41.52 9.69Q41.52 11.07 40.63 11.77L40.63 11.77L40.63 11.77Q39.73 12.46 38.26 12.46L38.26 12.46ZM36.71 7.78L39.54 7.78L39.54 7.78Q39.54 6.26 38.26 6.26L38.26 6.26L38.26 6.26Q37.53 6.26 37.16 6.64L37.16 6.64L37.16 6.64Q36.79 7.01 36.71 7.78L36.71 7.78ZM43.37 6.85L43.37 4.93L45.30 4.93L45.30 6.85L43.37 6.85ZM43.37 12.29L43.37 10.37L45.30 10.37L45.30 12.29L43.37 12.29ZM54.61 12.46L54.61 12.46Q52.85 12.46 51.98 11.52L51.98 11.52L51.98 11.52Q51.10 10.58 51.10 8.61L51.10 8.61L51.10 8.61Q51.10 6.65 51.98 5.71L51.98 5.71L51.98 5.71Q52.85 4.76 54.61 4.76L54.61 4.76L54.61 4.76Q56.08 4.76 56.96 5.51L56.96 5.51L56.96 5.51Q57.83 6.26 57.83 7.70L57.83 7.70L55.90 7.70L55.90 7.70Q55.90 7.03 55.55 6.66L55.55 6.66L55.55 6.66Q55.20 6.30 54.57 6.30L54.57 6.30L54.57 6.30Q53.79 6.30 53.42 6.85L53.42 6.85L53.42 6.85Q53.05 7.41 53.05 8.50L53.05 8.50L53.05 8.72L53.05 8.72Q53.05 9.81 53.43 10.37L53.43 10.37L53.43 10.37Q53.82 10.92 54.67 10.92L54.67 10.92L54.67 10.92Q55.27 10.92 55.63 10.55L55.63 10.55L55.63 10.55Q55.99 10.18 55.99 9.52L55.99 9.52L57.83 9.52L57.83 9.52Q57.83 10.96 56.97 11.71L56.97 11.71L56.97 11.71Q56.10 12.46 54.61 12.46L54.61 12.46ZM61.04 12.46L61.04 12.46Q60.19 12.46 59.47 12.01L59.47 12.01L59.47 12.01Q58.76 11.56 58.76 10.39L58.76 10.39L58.76 10.39Q58.76 8.97 59.92 8.38L59.92 8.38L59.92 8.38Q61.08 7.78 63.21 7.78L63.21 7.78L63.21 7.27L63.21 7.27Q63.21 6.78 62.99 6.51L62.99 6.51L62.99 6.51Q62.78 6.24 62.17 6.24L62.17 6.24L62.17 6.24Q61.53 6.24 61.26 6.44L61.26 6.44L61.26 6.44Q60.98 6.64 60.98 6.90L60.98 6.90L60.98 7.11L59.14 7.11L59.14 7.11Q59.12 7.03 59.12 6.80L59.12 6.80L59.12 6.80Q59.12 5.88 59.94 5.32L59.94 5.32L59.94 5.32Q60.76 4.76 62.12 4.76L62.12 4.76L62.12 4.76Q63.63 4.76 64.38 5.38L64.38 5.38L64.38 5.38Q65.13 5.99 65.13 7.15L65.13 7.15L65.13 10.40L65.13 10.40Q65.13 10.65 65.27 10.77L65.27 10.77L65.27 10.77Q65.41 10.89 65.62 10.89L65.62 10.89L66.01 10.89L66.01 12.24L66.01 12.24Q65.56 12.46 64.90 12.46L64.90 12.46L64.90 12.46Q64.33 12.46 63.95 12.21L63.95 12.21L63.95 12.21Q63.56 11.96 63.42 11.49L63.42 11.49L63.34 11.49L63.34 11.49Q62.93 11.97 62.41 12.21L62.41 12.21L62.41 12.21Q61.88 12.46 61.04 12.46L61.04 12.46ZM61.64 10.95L61.64 10.95Q62.45 10.95 62.83 10.49L62.83 10.49L62.83 10.49Q63.21 10.04 63.21 9.28L63.21 9.28L63.21 9.06L63.21 9.06Q60.70 9.06 60.70 10.18L60.70 10.18L60.70 10.18Q60.70 10.53 60.94 10.74L60.94 10.74L60.94 10.74Q61.17 10.95 61.64 10.95L61.64 10.95ZM67.13 12.29L67.13 4.93L68.77 4.93L68.92 6.12L69.02 6.12L69.02 6.12Q69.26 5.49 69.64 5.12L69.64 5.12L69.64 5.12Q70.01 4.76 70.63 4.76L70.63 4.76L70.63 4.76Q70.90 4.76 71.10 4.81L71.10 4.81L71.10 4.81Q71.30 4.86 71.36 4.89L71.36 4.89L71.36 6.68L70.83 6.68L70.83 6.68Q69.89 6.68 69.47 7.19L69.47 7.19L69.47 7.19Q69.05 7.70 69.05 8.74L69.05 8.74L69.05 12.29L67.13 12.29ZM75.04 12.46L75.04 12.46Q73.64 12.46 72.87 11.50L72.87 11.50L72.87 11.50Q72.10 10.54 72.10 8.60L72.10 8.60L72.10 8.60Q72.10 6.69 72.88 5.73L72.88 5.73L72.88 5.73Q73.65 4.76 74.94 4.76L74.94 4.76L74.94 4.76Q75.68 4.76 76.25 5.03L76.25 5.03L76.25 5.03Q76.82 5.29 77.14 5.78L77.14 5.78L77.22 5.78L77.22 2.17L79.14 2.17L79.14 12.29L77.50 12.29L77.38 11.33L77.28 11.33L77.28 11.33Q76.93 11.89 76.34 12.17L76.34 12.17L76.34 12.17Q75.75 12.46 75.04 12.46L75.04 12.46ZM75.66 10.79L75.66 10.79Q77.22 10.79 77.22 8.74L77.22 8.74L77.22 8.51L77.22 8.51Q77.22 6.43 75.66 6.43L75.66 6.43L75.66 6.43Q74.80 6.43 74.44 6.94L74.44 6.94L74.44 6.94Q74.07 7.45 74.07 8.48L74.07 8.48L74.07 8.74L74.07 8.74Q74.07 9.77 74.44 10.28L74.44 10.28L74.44 10.28Q74.80 10.79 75.66 10.79L75.66 10.79ZM84.07 12.46L84.07 12.46Q82.53 12.46 81.66 11.82L81.66 11.82L81.66 11.82Q80.78 11.19 80.78 10.12L80.78 10.12L80.79 9.95L82.66 9.95L82.66 10.05L82.66 10.05Q82.67 10.54 83.10 10.76L83.10 10.76L83.10 10.76Q83.52 10.98 84.14 10.98L84.14 10.98L84.14 10.98Q84.71 10.98 85.12 10.82L85.12 10.82L85.12 10.82Q85.53 10.67 85.53 10.32L85.53 10.32L85.53 10.32Q85.53 9.93 85.11 9.73L85.11 9.73L85.11 9.73Q84.70 9.53 83.82 9.34L83.82 9.34L83.82 9.34Q82.91 9.13 82.33 8.91L82.33 8.91L82.33 8.91Q81.76 8.69 81.34 8.23L81.34 8.23L81.34 8.23Q80.92 7.77 80.92 7L80.92 7L80.92 7Q80.92 5.92 81.82 5.34L81.82 5.34L81.82 5.34Q82.73 4.76 84.15 4.76L84.15 4.76L84.15 4.76Q85.48 4.76 86.35 5.30L86.35 5.30L86.35 5.30Q87.22 5.84 87.22 6.76L87.22 6.76L87.21 7.08L85.34 7.08L85.34 7.06L85.34 7.06Q85.33 6.65 84.99 6.45L84.99 6.45L84.99 6.45Q84.66 6.24 84.08 6.24L84.08 6.24L84.08 6.24Q83.51 6.24 83.17 6.40L83.17 6.40L83.17 6.40Q82.84 6.55 82.84 6.83L82.84 6.83L82.84 6.83Q82.84 7.18 83.22 7.35L83.22 7.35L83.22 7.35Q83.61 7.52 84.46 7.69L84.46 7.69L84.46 7.69Q85.40 7.90 85.99 8.11L85.99 8.11L85.99 8.11Q86.58 8.32 87.01 8.79L87.01 8.79L87.01 8.79Q87.44 9.27 87.44 10.08L87.44 10.08L87.44 10.08Q87.44 12.46 84.07 12.46L84.07 12.46ZM92.46 14.52L92.46 13.44L92.46 13.44Q93.84 13.44 93.84 12.59L93.84 12.59L93.84 12.59Q93.84 12.03 93.90 10.91L93.90 10.91L93.94 9.84L93.94 9.84Q93.97 9.09 94.39 8.71L94.39 8.71L94.39 8.71Q94.81 8.33 95.73 8.33L95.73 8.33L95.73 8.19L95.73 8.19Q94.79 8.19 94.38 7.80L94.38 7.80L94.38 7.80Q93.97 7.42 93.94 6.68L93.94 6.68L93.90 5.61L93.90 5.61Q93.84 4.49 93.84 3.93L93.84 3.93L93.84 3.93Q93.84 3.46 93.44 3.27L93.44 3.27L93.44 3.27Q93.03 3.08 92.46 3.08L92.46 3.08L92.46 2.00L92.46 2.00Q93.49 2.00 94.14 2.16L94.14 2.16L94.14 2.16Q94.78 2.32 95.14 2.77L95.14 2.77L95.14 2.77Q95.49 3.22 95.49 4.07L95.49 4.07L95.49 6.78L95.49 6.78Q95.49 7.21 95.89 7.41L95.89 7.41L95.89 7.41Q96.29 7.62 96.85 7.62L96.85 7.62L96.85 8.90L96.85 8.90Q96.29 8.90 95.89 9.11L95.89 9.11L95.89 9.11Q95.49 9.31 95.49 9.74L95.49 9.74L95.49 12.45L95.49 12.45Q95.49 13.30 95.14 13.75L95.14 13.75L95.14 13.75Q94.78 14.20 94.14 14.36L94.14 14.36L94.14 14.36Q93.49 14.52 92.46 14.52L92.46 14.52Z"></path></g><!----><!----></svg>